<?xml version="1.0" encoding="utf-8" ?>
<svg baseProfile="full" height="200mm" version="1.1" viewBox="0,0,200,200" width="200mm" xmlns="http://www.w3.org/2000/svg" xmlns:ev="http://www.w3.org/2001/xml-events" xmlns:xlink="http://www.w3.org/1999/xlink"><defs /><rect fill="#1a1a1a" height="200" width="200" x="0" y="0" /><text alignment-baseline="middle" fill="#e1ed5e" style="dominant-baseline: central; font-size:9.0px; font-family:Arial;" text-anchor="middle" x="100.0" y="100.0">2023</text><line stroke="#e1ed5e" stroke-width="0.3" x1="100.0" x2="100.0" y1="15.0" y2="10.0" /><path d="M 100.0 14.0 a86.0,86.0 0 0,1 42.46469731375804,11.215312516191453" fill="none" id="id13" stroke="none" /><text fill="#e1ed5e" style="font-size:6.75px; font-family:Arial;" text-anchor="middle"><textPath startOffset="22.20632615414155" xlink:href="#id13">January</textPath></text><path d="M 108.43124777332544 80.76684994638697 l 6.445057183317578 -14.702302108003643 a37.05292650488508,37.05292650488508 0 0,0 0.5819389392593945,0.2610990389327692 l -6.697178241043753 14.589182738554342" fill="#ffac0f" stroke="none" /><path d="M 109.08828744355905 81.06846463323043 l 6.505087433634372 -13.550549933481221 a36.03108665462999,36.03108665462999 0 0,0 0.5568153762030671,0.2732268868802164 l -6.73737407684787 13.436567886466172" fill="#ff9e0e" stroke="none" /><path d="M 109.41281617654863 81.2277094730956 l 8.334828477728 -16.622424016485635 a39.59500862965608,39.59500862965608 0 0,0 0.6066323224011696,0.3107406372611127 l -8.619721287717924 16.476490853912022" fill="#ffcf13" stroke="none" /><path d="M 110.05341064243156 81.56283822128135 l 7.1672770100852325 -13.144220448939251 a35.97131894488956,35.97131894488956 0 0,0 0.5410701494760644,0.30110495237920853 l -7.392471248633332 13.018900098999861" fill="#ff9d0e" stroke="none" /><line stroke="#e1ed5e" stroke-width="0.3" x1="143.23703022742887" x2="145.7803849466894" y1="26.81831364943548" y2="22.513508569990506" /><path d="M 143.74570117128098 25.957352633546492 a86.0,86.0 0 0,1 28.547481713284135,27.462654790039103" fill="none" id="id14" stroke="none" /><text fill="#e1ed5e" style="font-size:6.75px; font-family:Arial;" text-anchor="middle"><textPath startOffset="19.985693538727396" xlink:href="#id14">February</textPath></text><path d="M 110.68208982089419 81.91981866633111 l 10.643466154563157 -18.014808087165154 a41.924069446470554,41.924069446470554 0 0,0 0.6181562971025436,0.372432252406266 l -10.951984517883337 17.828929225300275" fill="#ffed16" stroke="none" /><path d="M 113.34407831869373 83.78471172551755 l 6.39194500096589 -7.767282861349775 a31.05920692418596,31.05920692418596 0 0,0 0.4098964336697778,0.34327647520806825 l -6.524698971594785 7.6561052287478875" fill="#ff5708" stroke="none" /><path d="M 114.42810811169701 84.74124197986012 l 10.279546280345414 -10.87135666258678 a35.961800273193504,35.961800273193504 0 0,0 0.4461262648109725,0.4291731132827792 l -10.465155788768804 10.6928004625417" fill="#ff9d0e" stroke="none" /><path d="M 114.68862486808459 84.99185889309783 l 12.210176311335237 -12.475779772880117 a38.45661726954271,38.45661726954271 0 0,0 0.46910517100590166,0.4670906843204741 l -12.42311728250846 12.263753237909526" fill="#ffbf11" stroke="none" /><path d="M 114.94478906791727 85.2469230424477 l 15.093145186672363 -14.899529960480004 a42.208465872599376,42.208465872599376 0 0,0 0.5059704397333809,0.5214470142025365 l -15.347379890108853 14.637518750727352" fill="#fff116" stroke="none" /><path d="M 115.19652480421416 85.50635884689758 l 10.74433841668239 -10.247381387861981 a35.84754637374463,35.84754637374463 0 0,0 0.4220326138461383,0.4501949670780306 l -10.919138352498992 10.060917003905898" fill="#ff9c0e" stroke="none" /><path d="M 116.82858285166822 87.43820079747576 l 23.9158121717783 -17.85210513061016 a50.843989837656366,50.843989837656366 0 0,0 0.5174886455849658,0.7058539310124641 l -24.219563429876892 17.437788755926203" fill="#a2ff22" stroke="none" /><path d="M 117.2510076193507 88.02491185347247 l 30.70101099041249 -21.311642827477794 a58.37296075827301,58.37296075827301 0 0,0 0.5658717465173089,0.8303469631081098 l -31.063307202598534 20.780017841099276" fill="#4eff2b" stroke="none" /><line stroke="#e1ed5e" stroke-width="0.3" x1="172.23445277983987" x2="176.4835382374775" y1="55.19839476539836" y2="52.563006222186495" /><path d="M 173.08426987136738 54.67131705675599 a86.0,86.0 0 0,1 12.851231095245387,41.99856678651699" fill="none" id="id15" stroke="none" /><text fill="#e1ed5e" style="font-size:6.75px; font-family:Arial;" text-anchor="middle"><textPath startOffset="22.20632615414155" xlink:href="#id15">March</textPath></text><path d="M 117.84615892207809 88.93136811851018 l 20.32904845501949 -12.608581758801146 a44.921675214225765,44.921675214225765 0 0,0 0.401908242250968,0.6606314756036952 l -20.543072495556682 12.25678250999037" fill="#eaff1a" stroke="none" /><path d="M 118.21658344932153 89.55222093294921 l 25.941886982169127 -14.878481715636894 a50.90569708865148,50.90569708865148 0 0,0 0.42940739304460235,0.7638678376618302 l -26.194152016506163 14.429730368040271" fill="#a2ff22" stroke="none" /><path d="M 118.56541770881063 90.18545643968196 l 21.103345563537026 -11.156210301882163 a44.870739876968194,44.870739876968194 0 0,0 0.35509969974658645,0.6859395939460639 l -21.292254696443727 10.791297985675754" fill="#ebff1a" stroke="none" /><path d="M 118.89224826269711 90.83032412892265 l 10.799947314171058 -5.2419391762493595 a33.004865193594156,33.004865193594156 0 0,0 0.24367304341067586,0.5132375737966531 l -10.88857855142349 5.055259186812166" fill="#ff740a" stroke="none" /><path d="M 119.196687751892 91.48605970444005 l 27.28111728270835 -12.09947292695091 a50.843870481271466,50.843870481271466 0 0,0 0.34793983503400955,0.8030931110078915 l -27.48534782758504 11.628080671356415" fill="#a2ff22" stroke="none" /><path d="M 119.47837535516314 92.15188598940014 l 27.671442471714535 -11.149217087974728 a50.83309856753392,50.83309856753392 0 0,0 0.3200220719108228,0.8144212665370222 l -27.85925809350706 10.671246816541922" fill="#a3ff22" stroke="none" /><path d="M 119.7369772167798 92.82701384747503 l 28.047456108122674 -10.193253610592151 a50.842289009171495,50.842289009171495 0 0,0 0.29185149069680494,0.825103465344271 l -28.218760679629288 9.708952518821265" fill="#a3ff22" stroke="none" /><path d="M 119.97218684219823 93.5106431181261 l 17.091165658792185 -5.553256354121038 a38.97071505841832,38.97071505841832 0 0,0 0.20180245505879918,0.6397689300301503 l -17.18422359761919 5.258237257664469" fill="#ffc612" stroke="none" /><line stroke="#e1ed5e" stroke-width="0.3" x1="184.98032266829074" x2="189.97916517819016" y1="98.17113171792111" y2="98.06355123074" /><path d="M 185.9800911702706 98.14961562048488 a86.0,86.0 0 0,1 -9.607161424134198,41.387399972396054" fill="none" id="id16" stroke="none" /><text fill="#e1ed5e" style="font-size:6.75px; font-family:Arial;" text-anchor="middle"><textPath startOffset="21.466115282336823" xlink:href="#id16">April</textPath></text><path d="M 120.99980553446 99.90962569577887 l 14.901208273842347 -0.06412851431375308 a35.901346264239876,35.901346264239876 0 0,0 -0.0026596105568461354,0.6179998282976318 l -14.900104365995999 -0.19238079218756343" fill="#ff9c0e" stroke="none" /><path d="M 120.99824983174949 100.27111621757518 l 10.642271022217669 0.1374063214349928 a31.643158037326337,31.643158037326337 0 0,0 -0.011719928555367942,0.5445790273929819 l -10.638329030977294 -0.32057516461808955" fill="#ff6008" stroke="none" /><path d="M 120.9764740272857 100.99374915477107 l 23.886232490597468 1.1315973941721535 a44.91302187632026,44.91302187632026 0 0,0 -0.04323124118041229,0.7719228523814217 l -23.863214898529524 -1.5425919628889986" fill="#eaff1a" stroke="none" /><path d="M 120.92983693683757 101.71520430193887 l 44.70973944328386 3.6639720444603485 a65.85961984044135,65.85961984044135 0 0,0 -0.10231888982536849,1.1290804231273672 l -44.64004595718142 -4.433033856136286" fill="#35ff67" stroke="none" /><path d="M 120.8583938346157 102.4346265915055 l 29.703060415158475 3.4669908579359143 a50.90471239847602,50.90471239847602 0 0,0 -0.10907786810260375,0.8694579314495081 l -29.63898103780902 -3.9777665436728173" fill="#a2ff22" stroke="none" /><path d="M 120.81339534386255 102.79330883721812 l 19.6030026611168 2.630865347275238 a40.77875541603278,40.77875541603278 0 0,0 -0.09935636758205833,0.6948982034586065 l -19.554812242518143 -2.9679090227142537" fill="#ffde14" stroke="none" /><path d="M 120.76222939487914 103.15116336523771 l 18.490053280861886 2.8063064621719227 a39.70180275504849,39.70180275504849 0 0,0 -0.10836369917207359,0.6747808581857307 l -18.439007827328524 -3.124166550050858" fill="#ffd013" stroke="none" /><path d="M 120.5718875245553 104.21870165774334 l 23.419385173347525 4.8026414171378615 a44.90675566611283,44.90675566611283 0 0,0 -0.161805373106809,0.7559008353726445 l -23.333245761516274 -5.205056071926675" fill="#ebff1a" stroke="none" /><path d="M 120.49622156327973 104.57218783832717 l 26.265260367665892 5.859114259317276 a47.91083651774905,47.91083651774905 0 0,0 -0.1864859363216481,0.8033765328832562 l -26.16051386541369 -6.3103594495490976" fill="#c5ff1e" stroke="none" /><path d="M 120.41448212921028 104.9243191809786 l 29.07277154373562 7.012845373734902 a50.90662210063448,50.90662210063448 0 0,0 -0.2128107356139385,0.850073102905227 l -28.94774949382662 -7.512246316037525" fill="#a2ff22" stroke="none" /><path d="M 120.23288151984713 105.62410040840565 l 28.795721434046573 8.004298770725987 a50.887495239953694,50.887495239953694 0 0,0 -0.2418546054938546,0.8419276100675276 l -28.653674191666617 -8.498783856298097" fill="#a2ff22" stroke="none" /><path d="M 120.13307415673323 105.97154293290107 l 28.644491256971175 8.49606016450831 a50.877916890065194,50.877916890065194 0 0,0 -0.25626292750604474,0.8374820743635077 l -28.494001556959 -8.987869211423874" fill="#a2ff22" stroke="none" /><path d="M 120.02730092923936 106.31721596034902 l 28.49624965830214 8.98857833052762 a50.88027417866703,50.88027417866703 0 0,0 -0.2706533760083365,0.832985439621767 l -28.337304031277558 -9.477762670127182" fill="#a2ff22" stroke="none" /><path d="M 119.9155931802556 106.66101706037122 l 28.342652400989277 9.479551498688425 a50.88591376785373,50.88591376785373 0 0,0 -0.2849833349967471,0.8282949692426854 l -28.175278235049298 -9.966019171020411" fill="#a2ff22" stroke="none" /><path d="M 119.12269723197855 108.67885076344098 l 28.717629969275666 13.033518324301598 a52.536881122935185,52.536881122935185 0 0,0 -0.3808308028085257,0.8202756689508601 l -28.48902454962731 -13.52591406053129" fill="#8fff24" stroke="none" /><path d="M 118.64920377521936 109.65438752849418 l 26.540325068532372 13.73949185349639 a50.885824250565044,50.885824250565044 0 0,0 -0.409382494001994,0.7743973988307833 l -26.299890066305487 -14.194304267413306" fill="#a2ff22" stroke="none" /><line stroke="#e1ed5e" stroke-width="0.3" x1="174.80103733775053" x2="179.2010983576182" y1="140.37084112569926" y2="142.7455964860345" /><path d="M 175.68104954172406 140.8457921977663 a86.0,86.0 0 0,1 -30.038265399797805,32.042727171017184" fill="none" id="id17" stroke="none" /><text fill="#e1ed5e" style="font-size:6.75px; font-family:Arial;" text-anchor="middle"><textPath startOffset="22.206326154141568" xlink:href="#id17">May</textPath></text><path d="M 118.48025628344425 109.97397251340804 l 19.456198438863197 10.500697905281815 a43.10900979669629,43.10900979669629 0 0,0 -0.35805848922523414,0.649980163062471 l -19.272563540186457 -10.83404858674209" fill="#fffd17" stroke="none" /><path d="M 118.12598468904814 110.60418214915192 l 18.089034302417918 10.582565192223502 a41.957190843281275,41.957190843281275 0 0,0 -0.37006067362642464,0.620242974848065 l -17.904192753093266 -10.892370260957671" fill="#ffee16" stroke="none" /><path d="M 116.498646956653 112.99209946851258 l 14.53335090909975 11.444498516630258 a39.4985089924616,39.4985089924616 0 0,0 -0.425233589701707,0.5305442858063146 l -14.33419940734319 -11.692970636014824" fill="#ffcd13" stroke="none" /><path d="M 115.32070863581623 114.36230785411682 l 21.82186747143659 20.456780820426623 a50.911097965068365,50.911097965068365 0 0,0 -0.6048564478280137,0.6341895673634613 l -21.466504472229612 -20.82937750437259" fill="#a2ff22" stroke="none" /><line stroke="#e1ed5e" stroke-width="0.3" x1="143.8653032363475" x2="146.44561519142675" y1="172.8068346515853" y2="177.08958963109032" /><path d="M 144.38136562736335 173.6633856474863 a86.0,86.0 0 0,1 -40.68145358897372,12.25698825130547" fill="none" id="id18" stroke="none" /><text fill="#e1ed5e" style="font-size:6.75px; font-family:Arial;" text-anchor="middle"><textPath startOffset="21.466115282336833" xlink:href="#id18">June</textPath></text><line stroke="#e1ed5e" stroke-width="0.3" x1="102.19456741930631" x2="102.32365962044197" y1="184.97166512339345" y2="189.96999836594603" /><path d="M 102.22038585953345 185.97133177190398 a86.0,86.0 0 0,1 -42.740103519485714,-10.115201625700543" fill="none" id="id19" stroke="none" /><text fill="#e1ed5e" style="font-size:6.75px; font-family:Arial;" text-anchor="middle"><textPath startOffset="22.20632615414155" xlink:href="#id19">July</textPath></text><path d="M 91.07499286063937 119.00905698771935 l -3.2550817271669374 6.9328834235344825 a28.659009701969,28.659009701969 0 0,0 -0.44474324807285026,-0.2135037860776477 l 3.37393764324003 -6.875825360957272" fill="#ff3404" stroke="none" /><path d="M 90.10565033884886 118.52300852407294 l -5.238176844742431 9.806283148323377 a32.117629506413984,32.117629506413984 0 0,0 -0.48540014010430726,-0.2646788585429199 l 5.406199796715379 -9.714663638020692" fill="#ff6709" stroke="none" /><line stroke="#e1ed5e" stroke-width="0.3" x1="58.666819895761336" x2="56.23545636021788" y1="174.27360380694188" y2="178.64263932499728" /><path d="M 58.180547188652646 175.14741091055294 a86.0,86.0 0 0,1 -31.652253787137756,-30.449443065178592" fill="none" id="id20" stroke="none" /><text fill="#e1ed5e" style="font-size:6.75px; font-family:Arial;" text-anchor="middle"><textPath startOffset="22.20632615414155" xlink:href="#id20">August</textPath></text><path d="M 89.7882731507175 118.34994917583269 l -3.7926221303679224 6.815147365626961 a28.79937281061552,28.79937281061552 0 0,0 -0.43110087404346886,-0.24479032732357092 l 3.9093717713325984 -6.748853872508757" fill="#ff3605" stroke="none" /><path d="M 87.36589467227662 116.77436683061367 l -9.00410776510221 11.95480033736731 a35.96633581581983,35.96633581581983 0 0,0 -0.49131945175783254,-0.3767228046716991 l 9.20855594535353 -11.798038190868244" fill="#ff9d0e" stroke="none" /><path d="M 87.07902340077011 116.55440617244103 l -9.380456284522591 12.018277583295797 a36.24571927378271,36.24571927378271 0 0,0 -0.48852758388163037,-0.388115858436396 l 9.585941361121579 -11.85502781085427" fill="#ffa10e" stroke="none" /><path d="M 83.95833913139862 113.55231037782056 l -11.440819253400267 9.665428958301119 a35.977077890461146,35.977077890461146 0 0,0 -0.39558339033568046,-0.47650567700824575 l 11.605498643629483 -9.467062024179112" fill="#ff9d0e" stroke="none" /><path d="M 83.50135304334701 112.99209946851258 l -23.45447496320876 18.46956738357677 a50.8535980266411,50.8535980266411 0 0,0 -0.535641390639319,-0.6923887025874076 l 23.76892317106615 -18.063100686876112" fill="#a2ff22" stroke="none" /><path d="M 83.06392112726016 112.41649034213515 l -14.463157106453563 10.60349635110149 a38.93368474000201,38.93368474000201 0 0,0 -0.39159909401742227,-0.54389689136554 l 14.643535992846592 -10.352965854284811" fill="#ffc612" stroke="none" /><path d="M 82.44556493220864 111.52570212397912 l -24.986038510336584 16.405064362156267 a50.8902702759027,50.8902702759027 0 0,0 -0.47447940102140196,-0.7364025671907805 l 25.264722774735034 -15.972540195044038" fill="#a2ff22" stroke="none" /><path d="M 82.24976979558568 111.22182372390057 l -25.224242318663748 15.946948158373884 a50.84237852646017,50.84237852646017 0 0,0 -0.46129861488939383,-0.7437602478783085 l 25.495005573221096 -15.510391579130312" fill="#a3ff22" stroke="none" /><path d="M 82.05923443525364 110.91462005526583 l -28.025871331297093 17.050093887852405 a53.80480399976507,53.80480399976507 0 0,0 -0.4745561276221313,-0.7953833663121553 l 28.31520833461746 -16.56514842765414" fill="#80ff25" stroke="none" /><line stroke="#e1ed5e" stroke-width="0.3" x1="26.63291911575756" x2="22.317208475507996" y1="142.92168965132927" y2="145.44649492493687" /><path d="M 25.769776987707644 143.4266507060508 a86.0,86.0 0 0,1 -11.730757126820373,-40.83630448921669" fill="none" id="id21" stroke="none" /><text fill="#e1ed5e" style="font-size:6.75px; font-family:Arial;" text-anchor="middle"><textPath startOffset="21.46611528233685" xlink:href="#id21">September</textPath></text><path d="M 81.35079622478065 109.6543875284942 l -24.396887877030807 12.629869505048458 a48.472199435046434,48.472199435046434 0 0,0 -0.37720911000288854,-0.7442693598732456 l 24.61067565681996 -12.208045933472524" fill="#bfff1e" stroke="none" /><path d="M 81.02952815118164 109.00673069616217 l -30.824352670132832 14.634672537188704 a55.12205090265634,55.12205090265634 0 0,0 -0.3995702532967352,-0.860638778162668 l 31.071697540269394 -14.10191369174721" fill="#72ff27" stroke="none" /><path d="M 80.87730276802145 108.67885076344099 l -12.625863456505066 5.730257785776446 a34.865362682373714,34.865362682373714 0 0,0 -0.24332522548472407,-0.5486341474845656 l 12.72262976672107 -5.512075301799184" fill="#ff8e0d" stroke="none" /><path d="M 80.20201598880116 107.00284435728193 l -25.342978749680604 8.964192295211882 a47.88165388164015,47.88165388164015 0 0,0 -0.26815816790874464,-0.779393157998806 l 25.49352774853258 -8.52662643412378" fill="#c6ff1e" stroke="none" /><path d="M 79.86692584326677 105.97154293290107 l -28.659338431759142 8.500463890486191 a50.89340338100642,50.89340338100642 0 0,0 -0.24188268530238508,-0.8420253595647524 l 28.80141375394763 -8.005881055416843" fill="#a2ff22" stroke="none" /><path d="M 79.67330655649465 105.27499134158121 l -30.757433319364125 7.98187835615471 a52.77625035285915,52.77625035285915 0 0,0 -0.2206265549958255,-0.8812934161781562 l 30.89027118865501 -7.451257100579163" fill="#8cff24" stroke="none" /><path d="M 79.35854240842038 103.8639653848113 l -14.727204127960139 2.7568502230531293 a35.9830158706101,35.9830158706101 0 0,0 -0.1087262082074117,-0.6097943162104439 l 14.77247677850674 -2.5029371561094718" fill="#ff9e0e" stroke="none" /><path d="M 79.29508885075956 103.50808413554451 l -29.487614363460224 4.996159191308779 a50.907875342675965,50.907875342675965 0 0,0 -0.13895000494458526,-0.8652418134280837 l 29.5692461227661 -4.487838148187482" fill="#a2ff22" stroke="none" /><path d="M 79.23777060512086 103.15116336523772 l -5.332674683252426 0.8093605354702584 a26.39374487288545,26.39374487288545 0 0,0 -0.06430766684033135,-0.44976767210267354 l 5.3458164011093565 -0.7174473913871843" fill="#ff1202" stroke="none" /><path d="M 79.18660465613746 102.79330883721812 l -29.60071234919236 3.972630607688548 a50.86610060795974,50.86610060795974 0 0,0 -0.10899513132648425,-0.8687984379383623 l 29.664708989765693 -3.462514415462777" fill="#a2ff22" stroke="none" /><path d="M 79.1416061653843 102.43462659150553 l -11.246837056355341 1.312749619402179 a32.32319104031404,32.32319104031404 0 0,0 -0.05974818496794341,-0.5531939880147487 l 11.267767542824336 -1.1189593095026482" fill="#ff6a09" stroke="none" /><path d="M 79.0095281055655 100.63252640178507 l -29.89236690078552 0.9007759030708796 a50.90593580142128,50.90593580142128 0 0,0 -0.018854437029737593,-0.8760916016841686 l 29.903443400500265 -0.38609448559658216" fill="#a2ff22" stroke="none" /><line stroke="#e1ed5e" stroke-width="0.3" x1="15.007084014347285" x2="10.007500721073583" y1="101.09737516637583" y2="101.16192664675087" /><path d="M 14.007167355692545 101.11028546245083 a86.0,86.0 0 0,1 10.666146001902534,-42.60595125391555" fill="none" id="id22" stroke="none" /><text fill="#e1ed5e" style="font-size:6.75px; font-family:Arial;" text-anchor="middle"><textPath startOffset="22.20632615414155" xlink:href="#id22">October</textPath></text><path d="M 79.00175016825051 100.2711162175752 l -46.29096241807846 0.5976798418565977 a67.2948206907135,67.2948206907135 0 0,0 -0.004985273092902461,-1.1584018974131487 l 46.294391988460866 0.19923153376022634" fill="#37ff79" stroke="none" /><path d="M 79.03285615573316 98.82574320788736 l -29.8606650198843 -1.672335010292179 a50.90745759532881,50.90745759532881 0 0,0 0.05653008688528406,-0.8744954233066208 l 29.827454341994603 2.1860894978518113" fill="#a2ff22" stroke="none" /><path d="M 79.05617556472873 98.46500227214037 l -29.82117513479213 -2.185629287310115 a50.901161546025136,50.901161546025136 0 0,0 0.07156586042064562,-0.8732847668091172 l 29.77913479055199 2.6986279713270105" fill="#a2ff22" stroke="none" /><path d="M 79.12142395522702 97.74499172005258 l -30.71251783295726 -3.3171314874555455 a51.891133241511014,51.891133241511014 0 0,0 0.10355900363787902,-0.8872303007515925 l 30.650868476315793 3.8453055265319995" fill="#96ff23" stroke="none" /><path d="M 79.16333360222342 97.38593545837743 l -4.193241390592486 -0.5260632110893498 a25.226111198470722,25.226111198470722 0 0,0 0.05776058831592638,-0.4303834734975882 l 4.183564803218726 0.5981650266515974" fill="#ff0000" stroke="none" /><path d="M 79.21141760316559 97.0276538004421 l -29.541940234039966 -4.223899066613917 a50.84237852646017,50.84237852646017 0 0,0 0.13132854278993517,-0.8652910101644812 l 29.464855797810728 4.731789189170491" fill="#a3ff22" stroke="none" /><path d="M 79.26566170972629 96.67025291283419 l -29.49596726327201 -4.736785408970077 a50.873888612074694,50.873888612074694 0 0,0 0.14629425859574835,-0.8634369954752847 l 29.41006114315604 5.243808192761189" fill="#a2ff22" stroke="none" /><path d="M 79.3925641242962 95.95851677861259 l -29.334004530256937 -5.752917919541351 a50.8928065990819,50.8928065990819 0 0,0 0.17599387848034945,-0.8582086544239399 l 29.230631355861593 6.257002230128693" fill="#a2ff22" stroke="none" /><path d="M 79.46518482838121 95.60439243477599 l -29.17869431871503 -6.245884777573665 a50.83969300779985,50.83969300779985 0 0,0 0.19054139060986242,-0.8541596926919087 l 29.066858541103134 6.747222639815533" fill="#a3ff22" stroke="none" /><path d="M 79.62865764111835 94.90015583598534 l -26.077530452723526 -6.52835434937619 a47.88228050266089,47.88228050266089 0 0,0 0.20704222419316534,-0.7978181476549043 l 25.961291896660054 6.976268922579959" fill="#c6ff1e" stroke="none" /><path d="M 79.71946130924805 94.55025226153421 l -28.896197231943045 -7.764931095585415 a50.92130293597761,50.92130293597761 0 0,0 0.23475503734288797,-0.8445387727514674 l 28.758255424033795 8.261181171755824" fill="#a2ff22" stroke="none" /><path d="M 80.02781315780177 93.51064311812611 l -29.820076155465227 -9.689130086075888 a52.35468360137998,52.35468360137998 0 0,0 0.2858633193074685,-0.8546949393592705 l 29.648875542385987 10.200998128357481" fill="#91ff24" stroke="none" /><path d="M 80.2630227832202 92.82701384747504 l -31.717241357585486 -11.526959298551171 a54.746913784904635,54.746913784904635 0 0,0 0.3295123188623304,-0.8829291913331717 l 31.51412445022153 12.071211626913684" fill="#76ff27" stroke="none" /><path d="M 80.38941819471856 92.48833698450439 l -34.28116067170348 -13.131100816016936 a57.7099957183265,57.7099957183265 0 0,0 0.36331588906013107,-0.9245993088996278 l 34.05005123276166 13.719249129812328" fill="#56ff2b" stroke="none" /><path d="M 80.65960295795068 91.81776055985345 l -37.118492866512646 -15.703524370821098 a61.30363743319358,61.30363743319358 0 0,0 0.41951915331361495,-0.9683080465020611 l 36.842683003356356 16.340131561909757" fill="#30ff2f" stroke="none" /><path d="M 80.803312248108 91.48605970444005 l -34.12747317925557 -15.13590640436749 a58.33336427758127,58.33336427758127 0 0,0 0.41499378413349675,-0.9143837938275191 l 33.86187707815872 15.72111220703708" fill="#4fff2b" stroke="none" /><path d="M 81.10775173730289 90.83032412892265 l -37.58565279468607 -18.242839535971697 a62.77897186788953,62.77897186788953 0 0,0 0.48022920131694463,-0.9681127658718792 l 37.26606358041571 18.88711189034254" fill="#31ff41" stroke="none" /><path d="M 81.26839172434947 90.50648371742162 l -56.16935339416371 -28.467639467058703 a83.97144398491183,83.97144398491183 0 0,0 0.6645362797245824,-1.283672574778332 l 55.67100768127901 29.43028476409737" fill="#4dd2ff" stroke="none" /><line stroke="#e1ed5e" stroke-width="0.3" x1="26.266209847984257" x2="21.92892807433627" y1="57.711370442889674" y2="55.22380399835377" /><path d="M 25.39875349325466 57.213857153982495 a86.0,86.0 0 0,1 29.58750427330802,-30.492523968695096" fill="none" id="id23" stroke="none" /><text fill="#e1ed5e" style="font-size:6.75px; font-family:Arial;" text-anchor="middle"><textPath startOffset="21.46611528233685" xlink:href="#id23">November</textPath></text><path d="M 81.78341655067847 89.55222093294921 l -26.67068008583171 -15.296467302991376 a51.74584668198722,51.74584668198722 0 0,0 0.44979541419707625,-0.7688461661885271 l 26.403424997164308 15.753292881533795" fill="#98ff23" stroke="none" /><path d="M 81.96595687620814 89.24020034530311 l -25.706534557618355 -15.337501399872336 a50.93434262102832,50.93434262102832 0 0,0 0.45570277634133827,-0.7490555453279044 l 25.4387159829908 15.777724718407315" fill="#a1ff22" stroke="none" /><path d="M 82.15384107792192 88.93136811851018 l -25.416071490836938 -15.763680040844553 a50.90769630809861,50.90769630809861 0 0,0 0.4682839078769495,-0.7407126836376131 l 25.140959986714027 16.198840372196383" fill="#a2ff22" stroke="none" /><path d="M 82.54541684631803 88.32363383020206 l -24.868120814638377 -16.63570433220225 a50.91939323381915,50.91939323381915 0 0,0 0.4936163183522981,-0.7243210381274987 l 24.57808003061734 17.061303393600163" fill="#a2ff22" stroke="none" /><path d="M 82.7489923806493 88.02491185347247 l -24.58773780507833 -17.06800750636978 a50.93114983773215,50.93114983773215 0 0,0 0.506128010952974,-0.7158821780823609 l 24.290297174321477 17.48871618478393" fill="#a1ff22" stroke="none" /><path d="M 82.95767976084542 87.72973835380427 l -25.18770280094652 -18.134837234437658 a52.03695690476687,52.03695690476687 0 0,0 0.5296306295983637,-0.7224155835612934 l 24.871809558834528 18.56571526167045" fill="#95ff23" stroke="none" /><path d="M 83.6137871275137 86.86637796730984 l -4.208227796264107 -3.3729131760758926 a26.393118251864706,26.393118251864706 0 0,0 0.2871841580646272,-0.3520538207501507 l 4.149545146123087 3.4448511664341255" fill="#ff1202" stroke="none" /><path d="M 84.07557802195018 86.31012108654704 l -25.18083863689875 -21.64741881077421 a54.20670678683139,54.20670678683139 0 0,0 0.6143636792340952,-0.702323888865014 l 24.80448309408681 22.077658255842163" fill="#7cff26" stroke="none" /><path d="M 84.5562425177563 85.77008943001954 l -21.989603765549884 -20.261267079131848 a50.90086315506289,50.90086315506289 0 0,0 0.5992550815162642,-0.6392435391093004 l 21.637581362063166 20.6367800351192" fill="#a2ff22" stroke="none" /><path d="M 85.05521093208273 85.24692304244772 l -33.99533142190279 -33.559238500160504 a68.7692897916189,68.7692897916189 0 0,0 0.838868099644391,-0.8352657334331063 l 33.412627522091086 34.139440084243724" fill="#39ff8a" stroke="none" /><path d="M 85.57189188830299 84.74124197986013 l -19.670557261983873 -20.80302358828207 a49.63034427686134,49.63034427686134 0 0,0 0.6257963756695221,-0.5816095294319972 l 19.309553002519493 21.138537703788714" fill="#b1ff20" stroke="none" /><path d="M 86.10567301691215 84.25364557470407 l -13.718367956963098 -15.546941154465141 a41.73405408170418,41.73405408170418 0 0,0 0.5427537608249688,-0.47067071300303887 l 13.448720397491355 15.78077686088786" fill="#ffeb16" stroke="none" /><path d="M 86.65592168130627 83.78471172551755 l -25.20462522699662 -30.627837617941307 a60.66531948672965,60.66531948672965 0 0,0 0.8120388158437375,-0.6566122488979499 l 24.67368301258838 31.05715596410339" fill="#36ff2e" stroke="none" /><path d="M 87.22198572758235 83.33499621200491 l -38.334042817252964 -49.99501136398527 a84.0,84.0 0 0,0 1.1550153849664402,-0.8699336419765826 l 37.467781278528136 50.64746159546771" fill="#4dd2ff" stroke="none" /><path d="M 87.80319425747017 82.90503203632743 l -21.561914294636363 -30.221046549668845 a58.124490604000144,58.124490604000144 0 0,0 0.8194691283527002,-0.5740904932330682 l 21.038514026700003 30.587721885665857" fill="#51ff2b" stroke="none" /><path d="M 88.39885842347998 82.49532879139004 l -27.22218988953933 -41.07487874806815 a70.27670125475768,70.27670125475768 0 0,0 1.0141027523475399,-0.6596006392300807 l 26.5111201114075 41.537378311457765" fill="#3bff9c" stroke="none" /><path d="M 89.00827224532344 82.1063720568725 l -21.103440081716467 -34.354663213129264 a61.31870617678764,61.31870617678764 0 0,0 0.9041236896565523,-0.5447244067090686 l 20.508954325842264 34.71283422929695" fill="#30ff2f" stroke="none" /><line stroke="#e1ed5e" stroke-width="0.3" x1="56.762969772571076" x2="54.21961505331055" y1="26.818313649435495" y2="22.513508569990535" /><path d="M 56.25429882871897 25.957352633546506 a86.0,86.0 0 0,1 42.265352541879196,-11.944610805530505" fill="none" id="id24" stroke="none" /><text fill="#e1ed5e" style="font-size:6.75px; font-family:Arial;" text-anchor="middle"><textPath startOffset="22.20632615414155" xlink:href="#id24">December</textPath></text><path d="M 89.63071344664047 81.73862282372117 l -23.736560905260276 -41.80251836306286 a69.07155983638702,69.07155983638702 0 0,0 1.03895437535874,-0.5781769850351055 l 23.013482440829492 42.20491074565815" fill="#39ff8e" stroke="none" /><path d="M 90.26544431104013 81.39251694778311 l -14.345389715522739 -27.421035385494534 a51.94678315597227,51.94678315597227 0 0,0 0.7958729849492733,-0.407677054765461 l 13.871256242984702 27.6639049655725" fill="#96ff23" stroke="none" /><path d="M 90.58718382345135 81.22770947309562 l -20.874079150977344 -41.629866232809405 a67.5700863533972,67.5700863533972 0 0,0 1.0442111672506713,-0.5123898848106013 l 20.154396716716246 41.983011277754834" fill="#37ff7c" stroke="none" /><path d="M 91.23893434514133 80.91482961587045 l -18.449491580718117 -40.19050925880191 a65.22285352698117,65.22285352698117 0 0,0 1.0243649227533715,-0.4596026813186438 l 17.754944539497973 40.502132270637084" fill="#34ff60" stroke="none" /><path d="M 91.90106846888425 80.62456947434976 l -18.71428023685545 -44.77099666464133 a69.52490522534674,69.52490522534674 0 0,0 1.108147964012507,-0.45204137845903064 l 17.940848403254563 45.08649892928394" fill="#3aff93" stroke="none" /><path d="M 93.59665428221793 80.00007090966166 l -4.534292432352591 -14.16221005685763 a35.87037328235742,35.87037328235742 0 0,0 0.5896655973045738,-0.1832119714275775 l 4.289841462337288 14.238162163167733" fill="#ff9c0e" stroke="none" /><path d="M 96.75951476605007 79.25152402106235 l -4.884569619229592 -31.275370228581043 a52.65450684025758,52.65450684025758 0 0,0 0.8967088079194289,-0.1321515687745507 l 4.345491830881514 31.354816281516563" fill="#8eff24" stroke="none" /></svg>